<?xml version="1.0" encoding="UTF-8"?>
<svg id="a" xmlns="http://www.w3.org/2000/svg" viewBox="0 0 342 158">
    <path
        d="M54,108C24.22,108,0,83.78,0,54S24.22,0,54,0s54,24.22,54,54-24.22,54-54,54ZM54,9.5c-24.54,0-44.5,19.96-44.5,44.5s19.96,44.5,44.5,44.5,44.5-19.96,44.5-44.5S78.54,9.5,54,9.5Z"
        fill="#fff" stroke-width="0" />
    <path
        d="M171,108c-29.78,0-54-24.22-54-54S141.22,0,171,0s54,24.22,54,54-24.22,54-54,54ZM171,9.5c-24.54,0-44.5,19.96-44.5,44.5s19.96,44.5,44.5,44.5,44.5-19.96,44.5-44.5-19.96-44.5-44.5-44.5Z"
        fill="#fff" stroke-width="0" />
    <path
        d="M288,108c-29.78,0-54-24.22-54-54S258.22,0,288,0s54,24.22,54,54-24.22,54-54,54ZM288,9.5c-24.54,0-44.5,19.96-44.5,44.5s19.96,44.5,44.5,44.5,44.5-19.96,44.5-44.5-19.96-44.5-44.5-44.5Z"
        fill="#fff" stroke-width="0" />
    <path
        d="M112.5,158c-29.78,0-54-24.22-54-54s24.22-54,54-54,54,24.22,54,54-24.22,54-54,54ZM112.5,59.5c-24.54,0-44.5,19.96-44.5,44.5s19.96,44.5,44.5,44.5,44.5-19.96,44.5-44.5-19.96-44.5-44.5-44.5Z"
        fill="#fff" stroke-width="0" />
    <path
        d="M229.5,158c-29.78,0-54-24.22-54-54s24.22-54,54-54,54,24.22,54,54-24.22,54-54,54ZM229.5,59.5c-24.54,0-44.5,19.96-44.5,44.5s19.96,44.5,44.5,44.5,44.5-19.96,44.5-44.5-19.96-44.5-44.5-44.5Z"
        fill="#fff" stroke-width="0" />
</svg>